<svg width="600" height="600" viewBox="0 0 570 393" fill="none" xmlns="http://www.w3.org/2000/svg">
<path d="M11.1896 376.675C9.28965 376.675 7.83965 376.15 6.83965 375.1C5.83965 374.05 5.33965 372.575 5.33965 370.675V329.05C5.33965 327.1 5.83965 325.625 6.83965 324.625C7.88965 323.625 9.36465 323.125 11.2646 323.125H29.4896C35.3897 323.125 39.9397 324.625 43.1397 327.625C46.3397 330.575 47.9397 334.7 47.9397 340C47.9397 345.3 46.3397 349.45 43.1397 352.45C39.9397 355.45 35.3897 356.95 29.4896 356.95H16.9646V370.675C16.9646 372.575 16.4646 374.05 15.4646 375.1C14.5146 376.15 13.0896 376.675 11.1896 376.675ZM16.9646 347.95H27.5396C30.5396 347.95 32.8147 347.275 34.3647 345.925C35.9646 344.575 36.7646 342.6 36.7646 340C36.7646 337.4 35.9646 335.45 34.3647 334.15C32.8147 332.85 30.5396 332.2 27.5396 332.2H16.9646V347.95ZM64.9348 376.825C62.2348 376.825 59.8098 376.3 57.6598 375.25C55.5098 374.2 53.8348 372.775 52.6348 370.975C51.4348 369.175 50.8348 367.15 50.8348 364.9C50.8348 362.2 51.5348 360.075 52.9348 358.525C54.3348 356.925 56.6098 355.8 59.7598 355.15C62.9098 354.45 67.0848 354.1 72.2848 354.1H76.2598V359.95H72.3598C69.8098 359.95 67.7348 360.1 66.1348 360.4C64.5848 360.65 63.4598 361.1 62.7598 361.75C62.1098 362.4 61.7848 363.3 61.7848 364.45C61.7848 365.85 62.2598 367 63.2098 367.9C64.2098 368.8 65.6348 369.25 67.4848 369.25C68.9348 369.25 70.2098 368.925 71.3098 368.275C72.4598 367.575 73.3598 366.65 74.0098 365.5C74.6598 364.3 74.9848 362.95 74.9848 361.45V352.825C74.9848 350.625 74.4848 349.075 73.4848 348.175C72.4848 347.225 70.7848 346.75 68.3848 346.75C67.0348 346.75 65.5598 346.925 63.9598 347.275C62.4098 347.575 60.6848 348.1 58.7848 348.85C57.6848 349.35 56.7098 349.475 55.8598 349.225C55.0098 348.925 54.3598 348.425 53.9098 347.725C53.4598 346.975 53.2348 346.175 53.2348 345.325C53.2348 344.425 53.4848 343.575 53.9848 342.775C54.4848 341.925 55.3098 341.3 56.4598 340.9C58.8098 339.95 61.0098 339.3 63.0598 338.95C65.1598 338.6 67.0848 338.425 68.8348 338.425C72.6848 338.425 75.8348 339 78.2848 340.15C80.7848 341.25 82.6598 342.975 83.9098 345.325C85.1598 347.625 85.7848 350.6 85.7848 354.25V370.9C85.7848 372.75 85.3348 374.175 84.4348 375.175C83.5348 376.175 82.2348 376.675 80.5348 376.675C78.8348 376.675 77.5098 376.175 76.5598 375.175C75.6598 374.175 75.2098 372.75 75.2098 370.9V368.125L75.7348 368.575C75.4348 370.275 74.7848 371.75 73.7848 373C72.8348 374.2 71.6098 375.15 70.1098 375.85C68.6098 376.5 66.8848 376.825 64.9348 376.825ZM111.933 390.325C109.233 390.325 106.633 390.1 104.133 389.65C101.683 389.2 99.5078 388.525 97.6078 387.625C96.4578 387.125 95.6328 386.475 95.1328 385.675C94.6828 384.875 94.4828 384.025 94.5328 383.125C94.6328 382.225 94.9328 381.425 95.4328 380.725C95.9828 380.025 96.6578 379.525 97.4578 379.225C98.2578 378.975 99.1078 379.05 100.008 379.45C102.208 380.45 104.233 381.1 106.083 381.4C107.983 381.7 109.608 381.85 110.958 381.85C114.158 381.85 116.558 381.125 118.158 379.675C119.758 378.225 120.558 376 120.558 373V367.3H121.233C120.483 369.6 118.933 371.475 116.583 372.925C114.233 374.375 111.633 375.1 108.783 375.1C105.483 375.1 102.608 374.35 100.158 372.85C97.7078 371.3 95.8078 369.15 94.4578 366.4C93.1078 363.6 92.4328 360.375 92.4328 356.725C92.4328 353.975 92.8078 351.475 93.5578 349.225C94.3578 346.975 95.4578 345.05 96.8578 343.45C98.3078 341.85 100.033 340.625 102.033 339.775C104.083 338.875 106.333 338.425 108.783 338.425C111.733 338.425 114.333 339.15 116.583 340.6C118.883 342 120.408 343.85 121.158 346.15L120.408 348.55V344.275C120.408 342.425 120.883 341.025 121.833 340.075C122.833 339.075 124.233 338.575 126.033 338.575C127.833 338.575 129.208 339.075 130.158 340.075C131.108 341.025 131.583 342.425 131.583 344.275V371.725C131.583 377.875 129.883 382.5 126.483 385.6C123.133 388.75 118.283 390.325 111.933 390.325ZM112.158 366.625C113.858 366.625 115.308 366.225 116.508 365.425C117.758 364.625 118.733 363.5 119.433 362.05C120.133 360.55 120.483 358.775 120.483 356.725C120.483 353.625 119.708 351.225 118.158 349.525C116.658 347.775 114.658 346.9 112.158 346.9C110.458 346.9 108.983 347.3 107.733 348.1C106.483 348.85 105.508 349.975 104.808 351.475C104.158 352.925 103.833 354.675 103.833 356.725C103.833 359.825 104.583 362.25 106.083 364C107.583 365.75 109.608 366.625 112.158 366.625ZM159.5 376.825C155.15 376.825 151.4 376.05 148.25 374.5C145.15 372.9 142.75 370.675 141.05 367.825C139.4 364.925 138.575 361.525 138.575 357.625C138.575 353.825 139.375 350.5 140.975 347.65C142.575 344.75 144.8 342.5 147.65 340.9C150.55 339.25 153.825 338.425 157.475 338.425C160.125 338.425 162.525 338.875 164.675 339.775C166.825 340.625 168.675 341.875 170.225 343.525C171.775 345.125 172.95 347.1 173.75 349.45C174.55 351.75 174.95 354.325 174.95 357.175C174.95 358.125 174.65 358.85 174.05 359.35C173.45 359.8 172.575 360.025 171.425 360.025H147.875V354.175H166.775L165.575 355.225C165.575 353.175 165.275 351.475 164.675 350.125C164.075 348.725 163.2 347.675 162.05 346.975C160.95 346.275 159.575 345.925 157.925 345.925C156.075 345.925 154.5 346.35 153.2 347.2C151.9 348.05 150.9 349.275 150.2 350.875C149.5 352.475 149.15 354.4 149.15 356.65V357.25C149.15 361.05 150.025 363.85 151.775 365.65C153.575 367.45 156.225 368.35 159.725 368.35C160.925 368.35 162.3 368.2 163.85 367.9C165.4 367.6 166.85 367.125 168.2 366.475C169.35 365.925 170.375 365.75 171.275 365.95C172.175 366.1 172.875 366.5 173.375 367.15C173.875 367.8 174.15 368.55 174.2 369.4C174.3 370.25 174.125 371.1 173.675 371.95C173.225 372.75 172.475 373.425 171.425 373.975C169.725 374.925 167.8 375.625 165.65 376.075C163.55 376.575 161.5 376.825 159.5 376.825ZM208.86 376.675C207.11 376.675 205.76 376.2 204.81 375.25C203.91 374.25 203.46 372.85 203.46 371.05V328.3C203.46 326.4 203.91 324.95 204.81 323.95C205.76 322.95 207.01 322.45 208.56 322.45C209.91 322.45 210.935 322.725 211.635 323.275C212.385 323.775 213.235 324.625 214.185 325.825L240.51 359.35H238.485V328C238.485 326.25 238.935 324.9 239.835 323.95C240.785 322.95 242.135 322.45 243.885 322.45C245.635 322.45 246.96 322.95 247.86 323.95C248.81 324.9 249.285 326.25 249.285 328V371.275C249.285 372.925 248.86 374.25 248.01 375.25C247.16 376.2 246.01 376.675 244.56 376.675C243.16 376.675 242.035 376.4 241.185 375.85C240.385 375.3 239.51 374.425 238.56 373.225L212.31 339.7H214.26V371.05C214.26 372.85 213.81 374.25 212.91 375.25C212.01 376.2 210.66 376.675 208.86 376.675ZM276.654 376.825C272.704 376.825 269.254 376.05 266.304 374.5C263.404 372.95 261.154 370.725 259.554 367.825C257.954 364.925 257.154 361.5 257.154 357.55C257.154 354.6 257.604 351.95 258.504 349.6C259.404 347.25 260.704 345.25 262.404 343.6C264.154 341.9 266.229 340.625 268.629 339.775C271.029 338.875 273.704 338.425 276.654 338.425C280.604 338.425 284.029 339.2 286.929 340.75C289.879 342.3 292.154 344.5 293.754 347.35C295.404 350.2 296.229 353.6 296.229 357.55C296.229 360.55 295.754 363.225 294.804 365.575C293.904 367.925 292.604 369.95 290.904 371.65C289.204 373.35 287.129 374.65 284.679 375.55C282.279 376.4 279.604 376.825 276.654 376.825ZM276.654 368.35C278.304 368.35 279.729 367.95 280.929 367.15C282.129 366.35 283.079 365.175 283.779 363.625C284.479 362.025 284.829 360 284.829 357.55C284.829 353.9 284.079 351.225 282.579 349.525C281.079 347.775 279.104 346.9 276.654 346.9C275.054 346.9 273.629 347.275 272.379 348.025C271.179 348.775 270.229 349.95 269.529 351.55C268.879 353.1 268.554 355.1 268.554 357.55C268.554 361.2 269.304 363.925 270.804 365.725C272.304 367.475 274.254 368.35 276.654 368.35ZM320.828 376.825C317.378 376.825 314.478 376.25 312.128 375.1C309.828 373.95 308.103 372.275 306.953 370.075C305.853 367.875 305.303 365.1 305.303 361.75V347.65H302.153C300.753 347.65 299.653 347.275 298.853 346.525C298.103 345.775 297.728 344.75 297.728 343.45C297.728 342.05 298.103 341 298.853 340.3C299.653 339.55 300.753 339.175 302.153 339.175H305.303V333.475C305.303 331.575 305.803 330.15 306.803 329.2C307.803 328.2 309.203 327.7 311.003 327.7C312.853 327.7 314.253 328.2 315.203 329.2C316.153 330.15 316.628 331.575 316.628 333.475V339.175H323.753C325.153 339.175 326.228 339.55 326.978 340.3C327.728 341 328.103 342.05 328.103 343.45C328.103 344.75 327.728 345.775 326.978 346.525C326.228 347.275 325.153 347.65 323.753 347.65H316.628V361.3C316.628 363.4 317.103 364.975 318.053 366.025C319.053 367.075 320.628 367.6 322.778 367.6C323.528 367.6 324.228 367.525 324.878 367.375C325.528 367.225 326.128 367.125 326.678 367.075C327.378 367.025 327.953 367.25 328.403 367.75C328.853 368.2 329.078 369.225 329.078 370.825C329.078 372.025 328.878 373.075 328.478 373.975C328.078 374.875 327.378 375.525 326.378 375.925C325.728 376.175 324.828 376.375 323.678 376.525C322.578 376.725 321.628 376.825 320.828 376.825ZM360.923 376.675C359.023 376.675 357.548 376.15 356.498 375.1C355.498 374.05 354.998 372.525 354.998 370.525V329.2C354.998 327.25 355.523 325.75 356.573 324.7C357.623 323.65 359.123 323.125 361.073 323.125H386.723C388.223 323.125 389.348 323.525 390.098 324.325C390.898 325.075 391.298 326.175 391.298 327.625C391.298 329.125 390.898 330.275 390.098 331.075C389.348 331.825 388.223 332.2 386.723 332.2H366.623V345.1H385.073C386.573 345.1 387.723 345.5 388.523 346.3C389.323 347.05 389.723 348.15 389.723 349.6C389.723 351.05 389.323 352.175 388.523 352.975C387.723 353.775 386.573 354.175 385.073 354.175H366.623V370.525C366.623 374.625 364.723 376.675 360.923 376.675ZM413.251 376.825C409.301 376.825 405.851 376.05 402.901 374.5C400.001 372.95 397.751 370.725 396.151 367.825C394.551 364.925 393.751 361.5 393.751 357.55C393.751 354.6 394.201 351.95 395.101 349.6C396.001 347.25 397.301 345.25 399.001 343.6C400.751 341.9 402.826 340.625 405.226 339.775C407.626 338.875 410.301 338.425 413.251 338.425C417.201 338.425 420.626 339.2 423.526 340.75C426.476 342.3 428.751 344.5 430.351 347.35C432.001 350.2 432.826 353.6 432.826 357.55C432.826 360.55 432.351 363.225 431.401 365.575C430.501 367.925 429.201 369.95 427.501 371.65C425.801 373.35 423.726 374.65 421.276 375.55C418.876 376.4 416.201 376.825 413.251 376.825ZM413.251 368.35C414.901 368.35 416.326 367.95 417.526 367.15C418.726 366.35 419.676 365.175 420.376 363.625C421.076 362.025 421.426 360 421.426 357.55C421.426 353.9 420.676 351.225 419.176 349.525C417.676 347.775 415.701 346.9 413.251 346.9C411.651 346.9 410.226 347.275 408.976 348.025C407.776 348.775 406.826 349.95 406.126 351.55C405.476 353.1 405.151 355.1 405.151 357.55C405.151 361.2 405.901 363.925 407.401 365.725C408.901 367.475 410.851 368.35 413.251 368.35ZM453.291 376.825C450.191 376.825 447.616 376.25 445.566 375.1C443.516 373.95 441.991 372.225 440.991 369.925C440.041 367.575 439.566 364.675 439.566 361.225V344.275C439.566 342.375 440.041 340.95 440.991 340C441.991 339.05 443.391 338.575 445.191 338.575C446.991 338.575 448.391 339.05 449.391 340C450.391 340.95 450.891 342.375 450.891 344.275V361.525C450.891 363.725 451.341 365.375 452.241 366.475C453.141 367.525 454.566 368.05 456.516 368.05C458.666 368.05 460.416 367.3 461.766 365.8C463.166 364.25 463.866 362.225 463.866 359.725V344.275C463.866 342.375 464.341 340.95 465.291 340C466.291 339.05 467.691 338.575 469.491 338.575C471.341 338.575 472.741 339.05 473.691 340C474.691 340.95 475.191 342.375 475.191 344.275V370.9C475.191 374.75 473.366 376.675 469.716 376.675C467.916 376.675 466.541 376.175 465.591 375.175C464.641 374.175 464.166 372.75 464.166 370.9V365.875L465.291 368.8C464.191 371.35 462.616 373.325 460.566 374.725C458.516 376.125 456.091 376.825 453.291 376.825ZM489.654 376.675C487.804 376.675 486.379 376.175 485.379 375.175C484.429 374.175 483.954 372.75 483.954 370.9V344.275C483.954 342.425 484.429 341.025 485.379 340.075C486.379 339.075 487.754 338.575 489.504 338.575C491.304 338.575 492.679 339.075 493.629 340.075C494.579 341.025 495.054 342.425 495.054 344.275V348.55L494.229 346.075C495.379 343.625 497.079 341.75 499.329 340.45C501.629 339.1 504.229 338.425 507.129 338.425C510.079 338.425 512.504 339 514.404 340.15C516.304 341.25 517.729 342.95 518.679 345.25C519.629 347.5 520.104 350.375 520.104 353.875V370.9C520.104 372.75 519.604 374.175 518.604 375.175C517.654 376.175 516.254 376.675 514.404 376.675C512.604 376.675 511.204 376.175 510.204 375.175C509.254 374.175 508.779 372.75 508.779 370.9V354.4C508.779 351.85 508.304 350.025 507.354 348.925C506.454 347.775 505.054 347.2 503.154 347.2C500.754 347.2 498.829 347.95 497.379 349.45C495.979 350.95 495.279 352.95 495.279 355.45V370.9C495.279 374.75 493.404 376.675 489.654 376.675ZM542.884 376.825C539.684 376.825 536.859 376.05 534.409 374.5C532.009 372.95 530.134 370.725 528.784 367.825C527.434 364.925 526.759 361.5 526.759 357.55C526.759 353.6 527.434 350.2 528.784 347.35C530.134 344.5 532.009 342.3 534.409 340.75C536.859 339.2 539.684 338.425 542.884 338.425C545.784 338.425 548.334 339.125 550.534 340.525C552.784 341.925 554.309 343.75 555.109 346H554.284V328.225C554.284 326.325 554.759 324.9 555.709 323.95C556.659 322.95 558.059 322.45 559.909 322.45C561.709 322.45 563.109 322.95 564.109 323.95C565.109 324.9 565.609 326.325 565.609 328.225V370.9C565.609 372.75 565.109 374.175 564.109 375.175C563.159 376.175 561.784 376.675 559.984 376.675C558.184 376.675 556.784 376.175 555.784 375.175C554.834 374.175 554.359 372.75 554.359 370.9V365.8L555.184 368.725C554.484 371.175 552.984 373.15 550.684 374.65C548.434 376.1 545.834 376.825 542.884 376.825ZM546.259 368.35C547.909 368.35 549.334 367.95 550.534 367.15C551.734 366.35 552.684 365.175 553.384 363.625C554.084 362.025 554.434 360 554.434 357.55C554.434 353.9 553.684 351.225 552.184 349.525C550.684 347.775 548.709 346.9 546.259 346.9C544.659 346.9 543.234 347.275 541.984 348.025C540.784 348.775 539.834 349.95 539.134 351.55C538.484 353.1 538.159 355.1 538.159 357.55C538.159 361.2 538.909 363.925 540.409 365.725C541.909 367.475 543.859 368.35 546.259 368.35Z" fill="#242331"/>
<path d="M138.176 266.7C130.976 266.7 125.276 264.7 121.076 260.7C117.076 256.7 115.076 250.9 115.076 243.3V226.2H47.8758C40.4758 226.2 34.5758 224.6 30.1758 221.4C25.7758 218 23.5758 212.9 23.5758 206.1C23.5758 202.1 24.4758 198 26.2758 193.8C28.0758 189.6 31.2758 184.4 35.8758 178.2L113.576 65.1C116.976 60.1 120.776 56.3 124.976 53.7C129.176 51.1 133.976 49.8 139.376 49.8C145.776 49.8 150.876 51.8 154.676 55.8C158.676 59.6 160.676 65.4 160.676 73.2V189.6H171.776C178.376 189.6 183.376 191.2 186.776 194.4C190.176 197.4 191.876 201.9 191.876 207.9C191.876 213.7 190.176 218.2 186.776 221.4C183.576 224.6 178.576 226.2 171.776 226.2H160.676V243.3C160.676 250.9 158.676 256.7 154.676 260.7C150.876 264.7 145.376 266.7 138.176 266.7ZM115.076 189.6V107.1H123.776L59.8758 201V189.6H115.076ZM285.059 267.3C259.459 267.3 239.859 257.8 226.259 238.8C212.859 219.6 206.159 192.5 206.159 157.5C206.159 134.1 209.159 114.4 215.159 98.4C221.359 82.2 230.259 70 241.859 61.8C253.659 53.4 268.059 49.2 285.059 49.2C310.859 49.2 330.459 58.5 343.859 77.1C357.259 95.5 363.959 122.3 363.959 157.5C363.959 180.9 360.859 200.8 354.659 217.2C348.659 233.4 339.859 245.8 328.259 254.4C316.659 263 302.259 267.3 285.059 267.3ZM285.059 229.5C296.659 229.5 305.259 223.8 310.859 212.4C316.459 200.8 319.259 182.5 319.259 157.5C319.259 132.5 316.459 114.5 310.859 103.5C305.259 92.5 296.659 87 285.059 87C273.459 87 264.859 92.5 259.259 103.5C253.659 114.5 250.859 132.5 250.859 157.5C250.859 182.5 253.659 200.8 259.259 212.4C264.859 223.8 273.459 229.5 285.059 229.5ZM497.941 266.7C490.741 266.7 485.041 264.7 480.841 260.7C476.841 256.7 474.841 250.9 474.841 243.3V226.2H407.641C400.241 226.2 394.341 224.6 389.941 221.4C385.541 218 383.341 212.9 383.341 206.1C383.341 202.1 384.241 198 386.041 193.8C387.841 189.6 391.041 184.4 395.641 178.2L473.341 65.1C476.741 60.1 480.541 56.3 484.741 53.7C488.941 51.1 493.741 49.8 499.141 49.8C505.541 49.8 510.641 51.8 514.441 55.8C518.441 59.6 520.441 65.4 520.441 73.2V189.6H531.541C538.141 189.6 543.141 191.2 546.541 194.4C549.941 197.4 551.641 201.9 551.641 207.9C551.641 213.7 549.941 218.2 546.541 221.4C543.341 224.6 538.341 226.2 531.541 226.2H520.441V243.3C520.441 250.9 518.441 256.7 514.441 260.7C510.641 264.7 505.141 266.7 497.941 266.7ZM474.841 189.6V107.1H483.541L419.641 201V189.6H474.841Z" fill="#2381D9"/>
</svg>
